<svg width="1600" height="450" viewBox="0 0 1600 450" fill="none" xmlns="http://www.w3.org/2000/svg">
<rect width="1600" height="450" fill="#292D3E"/>
<path d="M43.3409 356V303.636H61.0341C65.125 303.636 68.483 304.335 71.108 305.733C73.733 307.114 75.6761 309.014 76.9375 311.435C78.1989 313.855 78.8295 316.608 78.8295 319.693C78.8295 322.778 78.1989 325.514 76.9375 327.901C75.6761 330.287 73.7415 332.162 71.1335 333.526C68.5256 334.872 65.1932 335.545 61.1364 335.545H46.8182V329.818H60.9318C63.7273 329.818 65.9773 329.409 67.6818 328.591C69.4034 327.773 70.6477 326.614 71.4148 325.114C72.1989 323.597 72.5909 321.79 72.5909 319.693C72.5909 317.597 72.1989 315.764 71.4148 314.196C70.6307 312.628 69.3778 311.418 67.6562 310.565C65.9347 309.696 63.6591 309.261 60.8295 309.261H49.6818V356H43.3409ZM67.9886 332.477L80.875 356H73.5114L60.8295 332.477H67.9886ZM104.11 356.818C100.565 356.818 97.4538 355.974 94.7777 354.287C92.1186 352.599 90.0391 350.239 88.5391 347.205C87.0561 344.17 86.3146 340.625 86.3146 336.568C86.3146 332.477 87.0561 328.906 88.5391 325.855C90.0391 322.804 92.1186 320.435 94.7777 318.747C97.4538 317.06 100.565 316.216 104.11 316.216C107.656 316.216 110.758 317.06 113.417 318.747C116.093 320.435 118.173 322.804 119.656 325.855C121.156 328.906 121.906 332.477 121.906 336.568C121.906 340.625 121.156 344.17 119.656 347.205C118.173 350.239 116.093 352.599 113.417 354.287C110.758 355.974 107.656 356.818 104.11 356.818ZM104.11 351.398C106.803 351.398 109.019 350.707 110.758 349.327C112.496 347.946 113.783 346.131 114.619 343.881C115.454 341.631 115.871 339.193 115.871 336.568C115.871 333.943 115.454 331.497 114.619 329.23C113.783 326.963 112.496 325.131 110.758 323.733C109.019 322.335 106.803 321.636 104.11 321.636C101.417 321.636 99.201 322.335 97.4624 323.733C95.7237 325.131 94.4368 326.963 93.6016 329.23C92.7663 331.497 92.3487 333.943 92.3487 336.568C92.3487 339.193 92.7663 341.631 93.6016 343.881C94.4368 346.131 95.7237 347.946 97.4624 349.327C99.201 350.707 101.417 351.398 104.11 351.398ZM158.935 325.523L153.514 327.057C153.173 326.153 152.67 325.276 152.006 324.423C151.358 323.554 150.472 322.838 149.347 322.276C148.222 321.713 146.781 321.432 145.026 321.432C142.622 321.432 140.619 321.986 139.017 323.094C137.432 324.185 136.639 325.574 136.639 327.261C136.639 328.761 137.185 329.946 138.276 330.815C139.366 331.685 141.071 332.409 143.389 332.989L149.219 334.42C152.73 335.273 155.347 336.577 157.068 338.332C158.79 340.071 159.651 342.312 159.651 345.057C159.651 347.307 159.003 349.318 157.707 351.091C156.429 352.864 154.639 354.261 152.338 355.284C150.037 356.307 147.361 356.818 144.31 356.818C140.304 356.818 136.989 355.949 134.364 354.21C131.739 352.472 130.077 349.932 129.378 346.591L135.105 345.159C135.651 347.273 136.682 348.858 138.199 349.915C139.733 350.972 141.736 351.5 144.207 351.5C147.02 351.5 149.253 350.903 150.906 349.71C152.577 348.5 153.412 347.051 153.412 345.364C153.412 344 152.935 342.858 151.98 341.938C151.026 341 149.56 340.301 147.582 339.841L141.037 338.307C137.44 337.455 134.798 336.134 133.111 334.344C131.44 332.537 130.605 330.278 130.605 327.568C130.605 325.352 131.227 323.392 132.472 321.688C133.733 319.983 135.446 318.645 137.611 317.673C139.793 316.702 142.264 316.216 145.026 316.216C148.912 316.216 151.963 317.068 154.179 318.773C156.412 320.477 157.997 322.727 158.935 325.523ZM196.552 325.523L191.131 327.057C190.79 326.153 190.288 325.276 189.623 324.423C188.975 323.554 188.089 322.838 186.964 322.276C185.839 321.713 184.398 321.432 182.643 321.432C180.239 321.432 178.237 321.986 176.634 323.094C175.049 324.185 174.256 325.574 174.256 327.261C174.256 328.761 174.802 329.946 175.893 330.815C176.984 331.685 178.688 332.409 181.006 332.989L186.836 334.42C190.347 335.273 192.964 336.577 194.685 338.332C196.407 340.071 197.268 342.312 197.268 345.057C197.268 347.307 196.62 349.318 195.325 351.091C194.046 352.864 192.256 354.261 189.955 355.284C187.654 356.307 184.978 356.818 181.927 356.818C177.921 356.818 174.606 355.949 171.981 354.21C169.356 352.472 167.694 349.932 166.995 346.591L172.722 345.159C173.268 347.273 174.299 348.858 175.816 349.915C177.35 350.972 179.353 351.5 181.825 351.5C184.637 351.5 186.87 350.903 188.523 349.71C190.194 348.5 191.029 347.051 191.029 345.364C191.029 344 190.552 342.858 189.597 341.938C188.643 341 187.177 340.301 185.2 339.841L178.654 338.307C175.058 337.455 172.415 336.134 170.728 334.344C169.058 332.537 168.222 330.278 168.222 327.568C168.222 325.352 168.844 323.392 170.089 321.688C171.35 319.983 173.063 318.645 175.228 317.673C177.41 316.702 179.881 316.216 182.643 316.216C186.529 316.216 189.58 317.068 191.796 318.773C194.029 320.477 195.614 322.727 196.552 325.523ZM227.419 356V303.636H245.726C249.374 303.636 252.382 304.267 254.751 305.528C257.121 306.773 258.885 308.452 260.044 310.565C261.203 312.662 261.783 314.989 261.783 317.545C261.783 319.795 261.382 321.653 260.581 323.119C259.797 324.585 258.757 325.744 257.462 326.597C256.183 327.449 254.794 328.08 253.294 328.489V329C254.896 329.102 256.507 329.665 258.126 330.688C259.746 331.71 261.101 333.176 262.192 335.085C263.283 336.994 263.828 339.33 263.828 342.091C263.828 344.716 263.232 347.077 262.038 349.173C260.845 351.27 258.962 352.932 256.388 354.159C253.814 355.386 250.464 356 246.339 356H227.419ZM233.76 350.375H246.339C250.482 350.375 253.422 349.574 255.161 347.972C256.916 346.352 257.794 344.392 257.794 342.091C257.794 340.318 257.342 338.682 256.439 337.182C255.536 335.665 254.249 334.455 252.578 333.551C250.908 332.631 248.93 332.17 246.646 332.17H233.76V350.375ZM233.76 326.648H245.521C247.43 326.648 249.152 326.273 250.686 325.523C252.237 324.773 253.464 323.716 254.368 322.352C255.288 320.989 255.749 319.386 255.749 317.545C255.749 315.244 254.947 313.293 253.345 311.69C251.743 310.071 249.203 309.261 245.726 309.261H233.76V326.648ZM273.429 356V316.727H279.259V322.659H279.668C280.384 320.716 281.679 319.139 283.554 317.929C285.429 316.719 287.543 316.114 289.895 316.114C290.338 316.114 290.892 316.122 291.557 316.139C292.222 316.156 292.724 316.182 293.065 316.216V322.352C292.861 322.301 292.392 322.224 291.659 322.122C290.943 322.003 290.185 321.943 289.384 321.943C287.474 321.943 285.77 322.344 284.27 323.145C282.787 323.929 281.611 325.02 280.741 326.418C279.889 327.798 279.463 329.375 279.463 331.148V356H273.429ZM311.775 356.92C309.286 356.92 307.028 356.452 304.999 355.514C302.971 354.56 301.36 353.188 300.167 351.398C298.974 349.591 298.377 347.409 298.377 344.852C298.377 342.602 298.82 340.778 299.707 339.381C300.593 337.966 301.778 336.858 303.261 336.057C304.744 335.256 306.38 334.659 308.17 334.267C309.977 333.858 311.792 333.534 313.616 333.295C316.002 332.989 317.937 332.759 319.42 332.605C320.92 332.435 322.011 332.153 322.692 331.761C323.391 331.369 323.741 330.687 323.741 329.716V329.511C323.741 326.989 323.05 325.028 321.67 323.631C320.306 322.233 318.235 321.534 315.457 321.534C312.576 321.534 310.317 322.165 308.681 323.426C307.045 324.687 305.894 326.034 305.229 327.466L299.502 325.42C300.525 323.034 301.888 321.176 303.593 319.847C305.315 318.5 307.19 317.562 309.218 317.034C311.263 316.489 313.275 316.216 315.252 316.216C316.513 316.216 317.962 316.369 319.599 316.676C321.252 316.966 322.846 317.571 324.38 318.491C325.931 319.412 327.218 320.801 328.241 322.659C329.263 324.517 329.775 327.006 329.775 330.125V356H323.741V350.682H323.434C323.025 351.534 322.343 352.446 321.388 353.418C320.434 354.389 319.164 355.216 317.579 355.898C315.994 356.58 314.059 356.92 311.775 356.92ZM312.695 351.5C315.082 351.5 317.093 351.031 318.729 350.094C320.383 349.156 321.627 347.946 322.462 346.463C323.315 344.98 323.741 343.42 323.741 341.784V336.261C323.485 336.568 322.923 336.849 322.053 337.105C321.201 337.344 320.212 337.557 319.087 337.744C317.979 337.915 316.897 338.068 315.84 338.205C314.8 338.324 313.957 338.426 313.309 338.511C311.741 338.716 310.275 339.048 308.911 339.509C307.565 339.952 306.474 340.625 305.638 341.528C304.82 342.415 304.411 343.625 304.411 345.159C304.411 347.256 305.187 348.841 306.738 349.915C308.306 350.972 310.292 351.5 312.695 351.5ZM357.868 316.727V321.841H337.516V316.727H357.868ZM343.447 307.318H349.482V344.75C349.482 346.455 349.729 347.733 350.223 348.585C350.734 349.42 351.382 349.983 352.166 350.273C352.967 350.545 353.811 350.682 354.697 350.682C355.362 350.682 355.908 350.648 356.334 350.58C356.76 350.494 357.101 350.426 357.357 350.375L358.584 355.795C358.175 355.949 357.604 356.102 356.871 356.256C356.138 356.426 355.209 356.511 354.084 356.511C352.379 356.511 350.709 356.145 349.072 355.412C347.453 354.679 346.107 353.562 345.033 352.062C343.976 350.562 343.447 348.67 343.447 346.386V307.318ZM384.024 316.727V321.841H363.672V316.727H384.024ZM369.604 307.318H375.638V344.75C375.638 346.455 375.885 347.733 376.379 348.585C376.891 349.42 377.538 349.983 378.322 350.273C379.124 350.545 379.967 350.682 380.854 350.682C381.518 350.682 382.064 350.648 382.49 350.58C382.916 350.494 383.257 350.426 383.513 350.375L384.74 355.795C384.331 355.949 383.76 356.102 383.027 356.256C382.294 356.426 381.365 356.511 380.24 356.511C378.536 356.511 376.865 356.145 375.229 355.412C373.609 354.679 372.263 353.562 371.189 352.062C370.132 350.562 369.604 348.67 369.604 346.386V307.318ZM408.634 356.818C405.088 356.818 401.977 355.974 399.301 354.287C396.642 352.599 394.562 350.239 393.062 347.205C391.58 344.17 390.838 340.625 390.838 336.568C390.838 332.477 391.58 328.906 393.062 325.855C394.562 322.804 396.642 320.435 399.301 318.747C401.977 317.06 405.088 316.216 408.634 316.216C412.179 316.216 415.281 317.06 417.94 318.747C420.616 320.435 422.696 322.804 424.179 325.855C425.679 328.906 426.429 332.477 426.429 336.568C426.429 340.625 425.679 344.17 424.179 347.205C422.696 350.239 420.616 352.599 417.94 354.287C415.281 355.974 412.179 356.818 408.634 356.818ZM408.634 351.398C411.327 351.398 413.543 350.707 415.281 349.327C417.02 347.946 418.307 346.131 419.142 343.881C419.977 341.631 420.395 339.193 420.395 336.568C420.395 333.943 419.977 331.497 419.142 329.23C418.307 326.963 417.02 325.131 415.281 323.733C413.543 322.335 411.327 321.636 408.634 321.636C405.94 321.636 403.724 322.335 401.986 323.733C400.247 325.131 398.96 326.963 398.125 329.23C397.29 331.497 396.872 333.943 396.872 336.568C396.872 339.193 397.29 341.631 398.125 343.881C398.96 346.131 400.247 347.946 401.986 349.327C403.724 350.707 405.94 351.398 408.634 351.398ZM441.674 332.375V356H435.64V316.727H441.469V322.864H441.981C442.901 320.869 444.299 319.267 446.174 318.057C448.049 316.83 450.469 316.216 453.435 316.216C456.094 316.216 458.421 316.761 460.415 317.852C462.41 318.926 463.961 320.562 465.069 322.761C466.177 324.943 466.731 327.705 466.731 331.045V356H460.697V331.455C460.697 328.369 459.896 325.966 458.293 324.244C456.691 322.506 454.492 321.636 451.697 321.636C449.771 321.636 448.049 322.054 446.532 322.889C445.032 323.724 443.847 324.943 442.978 326.545C442.109 328.148 441.674 330.091 441.674 332.375Z" fill="white"/>
<path d="M54.4886 388.364C54.3352 387.068 53.7131 386.062 52.6222 385.347C51.5313 384.631 50.1932 384.273 48.608 384.273C47.4489 384.273 46.4347 384.46 45.5653 384.835C44.7045 385.21 44.0313 385.726 43.5455 386.382C43.0682 387.038 42.8295 387.784 42.8295 388.619C42.8295 389.318 42.9957 389.919 43.3281 390.422C43.669 390.916 44.1037 391.33 44.6321 391.662C45.1605 391.986 45.7145 392.254 46.294 392.467C46.8736 392.672 47.4062 392.838 47.892 392.966L50.5511 393.682C51.233 393.861 51.9915 394.108 52.8267 394.423C53.6705 394.739 54.4759 395.169 55.2429 395.714C56.0185 396.251 56.6577 396.942 57.1605 397.786C57.6634 398.629 57.9148 399.665 57.9148 400.892C57.9148 402.307 57.544 403.585 56.8026 404.727C56.0696 405.869 54.9957 406.777 53.581 407.45C52.1747 408.124 50.4659 408.46 48.4545 408.46C46.5795 408.46 44.956 408.158 43.5838 407.553C42.2202 406.947 41.1463 406.104 40.3622 405.021C39.5866 403.939 39.1477 402.682 39.0455 401.25H42.3182C42.4034 402.239 42.7358 403.057 43.3153 403.705C43.9034 404.344 44.6449 404.821 45.5398 405.136C46.4432 405.443 47.4148 405.597 48.4545 405.597C49.6648 405.597 50.7514 405.401 51.7145 405.009C52.6776 404.608 53.4403 404.054 54.0028 403.347C54.5653 402.631 54.8466 401.795 54.8466 400.841C54.8466 399.972 54.6037 399.264 54.1179 398.719C53.6321 398.173 52.9929 397.73 52.2003 397.389C51.4077 397.048 50.5511 396.75 49.6307 396.494L46.4091 395.574C44.3636 394.986 42.7443 394.146 41.5511 393.055C40.358 391.964 39.7614 390.537 39.7614 388.773C39.7614 387.307 40.1577 386.028 40.9503 384.938C41.7514 383.838 42.8253 382.986 44.1719 382.381C45.527 381.767 47.0398 381.46 48.7102 381.46C50.3977 381.46 51.8977 381.763 53.2102 382.368C54.5227 382.964 55.5625 383.783 56.3295 384.822C57.1051 385.862 57.5142 387.043 57.5568 388.364H54.4886ZM70.6957 408.409C68.9229 408.409 67.3675 407.987 66.0295 407.143C64.6999 406.3 63.6602 405.119 62.9102 403.602C62.1687 402.085 61.7979 400.312 61.7979 398.284C61.7979 396.239 62.1687 394.453 62.9102 392.928C63.6602 391.402 64.6999 390.217 66.0295 389.374C67.3675 388.53 68.9229 388.108 70.6957 388.108C72.4684 388.108 74.0195 388.53 75.3491 389.374C76.6871 390.217 77.7269 391.402 78.4684 392.928C79.2184 394.453 79.5934 396.239 79.5934 398.284C79.5934 400.312 79.2184 402.085 78.4684 403.602C77.7269 405.119 76.6871 406.3 75.3491 407.143C74.0195 407.987 72.4684 408.409 70.6957 408.409ZM70.6957 405.699C72.0423 405.699 73.1502 405.354 74.0195 404.663C74.8888 403.973 75.5323 403.065 75.9499 401.94C76.3675 400.815 76.5764 399.597 76.5764 398.284C76.5764 396.972 76.3675 395.749 75.9499 394.615C75.5323 393.482 74.8888 392.565 74.0195 391.866C73.1502 391.168 72.0423 390.818 70.6957 390.818C69.3491 390.818 68.2411 391.168 67.3718 391.866C66.5025 392.565 65.859 393.482 65.4414 394.615C65.0238 395.749 64.815 396.972 64.815 398.284C64.815 399.597 65.0238 400.815 65.4414 401.94C65.859 403.065 66.5025 403.973 67.3718 404.663C68.2411 405.354 69.3491 405.699 70.6957 405.699ZM92.9432 388.364V390.92H82.358V388.364H92.9432ZM85.5284 408V385.653C85.5284 384.528 85.7926 383.591 86.321 382.841C86.8494 382.091 87.5355 381.528 88.3793 381.153C89.223 380.778 90.1136 380.591 91.0511 380.591C91.7926 380.591 92.3977 380.651 92.8665 380.77C93.3352 380.889 93.6847 381 93.9148 381.102L93.0455 383.71C92.892 383.659 92.679 383.595 92.4062 383.518C92.142 383.442 91.7926 383.403 91.358 383.403C90.3608 383.403 89.6406 383.655 89.1974 384.158C88.7628 384.661 88.5455 385.398 88.5455 386.369V408H85.5284ZM105.711 388.364V390.92H95.5352V388.364H105.711ZM98.5011 383.659H101.518V402.375C101.518 403.227 101.642 403.866 101.889 404.293C102.145 404.71 102.468 404.991 102.86 405.136C103.261 405.273 103.683 405.341 104.126 405.341C104.458 405.341 104.731 405.324 104.944 405.29C105.157 405.247 105.328 405.213 105.456 405.188L106.069 407.898C105.865 407.974 105.579 408.051 105.213 408.128C104.846 408.213 104.382 408.256 103.819 408.256C102.967 408.256 102.132 408.072 101.314 407.706C100.504 407.339 99.8306 406.781 99.2937 406.031C98.7653 405.281 98.5011 404.335 98.5011 403.193V383.659ZM114.699 408L108.716 388.364H111.886L116.13 403.398H116.335L120.528 388.364H123.75L127.892 403.347H128.096L132.341 388.364H135.511L129.528 408H126.562L122.267 392.915H121.96L117.664 408H114.699ZM145.278 408.46C144.034 408.46 142.904 408.226 141.89 407.757C140.876 407.28 140.071 406.594 139.474 405.699C138.877 404.795 138.579 403.705 138.579 402.426C138.579 401.301 138.801 400.389 139.244 399.69C139.687 398.983 140.279 398.429 141.021 398.028C141.762 397.628 142.581 397.33 143.475 397.134C144.379 396.929 145.287 396.767 146.199 396.648C147.392 396.494 148.359 396.379 149.1 396.303C149.85 396.217 150.396 396.077 150.737 395.881C151.086 395.685 151.261 395.344 151.261 394.858V394.756C151.261 393.494 150.916 392.514 150.225 391.815C149.544 391.116 148.508 390.767 147.119 390.767C145.679 390.767 144.549 391.082 143.731 391.713C142.913 392.344 142.338 393.017 142.005 393.733L139.142 392.71C139.653 391.517 140.335 390.588 141.187 389.923C142.048 389.25 142.985 388.781 144 388.517C145.022 388.244 146.028 388.108 147.017 388.108C147.647 388.108 148.372 388.185 149.19 388.338C150.017 388.483 150.814 388.786 151.581 389.246C152.356 389.706 153 390.401 153.511 391.33C154.022 392.259 154.278 393.503 154.278 395.062V408H151.261V405.341H151.108C150.903 405.767 150.562 406.223 150.085 406.709C149.608 407.195 148.973 407.608 148.18 407.949C147.387 408.29 146.42 408.46 145.278 408.46ZM145.738 405.75C146.931 405.75 147.937 405.516 148.755 405.047C149.582 404.578 150.204 403.973 150.622 403.232C151.048 402.49 151.261 401.71 151.261 400.892V398.131C151.133 398.284 150.852 398.425 150.417 398.553C149.991 398.672 149.497 398.778 148.934 398.872C148.38 398.957 147.839 399.034 147.311 399.102C146.791 399.162 146.369 399.213 146.045 399.256C145.261 399.358 144.528 399.524 143.846 399.754C143.173 399.976 142.627 400.312 142.21 400.764C141.801 401.207 141.596 401.812 141.596 402.58C141.596 403.628 141.984 404.42 142.76 404.957C143.544 405.486 144.537 405.75 145.738 405.75ZM159.785 408V388.364H162.7V391.33H162.904C163.262 390.358 163.91 389.57 164.847 388.964C165.785 388.359 166.842 388.057 168.018 388.057C168.239 388.057 168.516 388.061 168.849 388.07C169.181 388.078 169.433 388.091 169.603 388.108V391.176C169.501 391.151 169.266 391.112 168.9 391.061C168.542 391.001 168.163 390.972 167.762 390.972C166.808 390.972 165.955 391.172 165.205 391.572C164.464 391.964 163.876 392.51 163.441 393.209C163.015 393.899 162.802 394.687 162.802 395.574V408H159.785ZM180.815 408.409C178.923 408.409 177.29 407.991 175.918 407.156C174.555 406.312 173.502 405.136 172.761 403.628C172.028 402.111 171.661 400.347 171.661 398.335C171.661 396.324 172.028 394.551 172.761 393.017C173.502 391.474 174.533 390.273 175.854 389.412C177.184 388.543 178.735 388.108 180.508 388.108C181.531 388.108 182.54 388.278 183.538 388.619C184.535 388.96 185.442 389.514 186.261 390.281C187.079 391.04 187.731 392.045 188.217 393.298C188.702 394.551 188.945 396.094 188.945 397.926V399.205H173.809V396.597H185.877C185.877 395.489 185.656 394.5 185.212 393.631C184.778 392.761 184.156 392.075 183.346 391.572C182.545 391.07 181.599 390.818 180.508 390.818C179.306 390.818 178.266 391.116 177.388 391.713C176.519 392.301 175.85 393.068 175.381 394.014C174.913 394.96 174.678 395.974 174.678 397.057V398.795C174.678 400.278 174.934 401.536 175.445 402.567C175.965 403.589 176.685 404.369 177.606 404.906C178.526 405.435 179.596 405.699 180.815 405.699C181.607 405.699 182.323 405.588 182.962 405.366C183.61 405.136 184.168 404.795 184.637 404.344C185.106 403.884 185.468 403.312 185.724 402.631L188.638 403.449C188.332 404.438 187.816 405.307 187.092 406.057C186.367 406.798 185.472 407.378 184.407 407.795C183.342 408.205 182.144 408.409 180.815 408.409ZM204.069 408V381.818H219.87V384.631H207.239V393.477H219.052V396.29H207.239V405.188H220.075V408H204.069ZM228.192 396.188V408H225.175V388.364H228.09V391.432H228.346C228.806 390.435 229.505 389.634 230.442 389.028C231.38 388.415 232.59 388.108 234.073 388.108C235.403 388.108 236.566 388.381 237.563 388.926C238.56 389.463 239.336 390.281 239.89 391.381C240.444 392.472 240.721 393.852 240.721 395.523V408H237.704V395.727C237.704 394.185 237.303 392.983 236.502 392.122C235.701 391.253 234.602 390.818 233.204 390.818C232.241 390.818 231.38 391.027 230.621 391.445C229.871 391.862 229.279 392.472 228.844 393.273C228.41 394.074 228.192 395.045 228.192 396.188ZM254.16 415.773C252.703 415.773 251.45 415.585 250.402 415.21C249.353 414.844 248.48 414.358 247.781 413.753C247.091 413.156 246.541 412.517 246.132 411.835L248.535 410.148C248.808 410.506 249.153 410.915 249.571 411.375C249.988 411.844 250.559 412.249 251.284 412.589C252.017 412.939 252.975 413.114 254.16 413.114C255.745 413.114 257.054 412.73 258.085 411.963C259.116 411.196 259.632 409.994 259.632 408.358V404.369H259.376C259.154 404.727 258.839 405.17 258.43 405.699C258.029 406.219 257.45 406.683 256.691 407.092C255.941 407.493 254.927 407.693 253.649 407.693C252.064 407.693 250.64 407.318 249.379 406.568C248.126 405.818 247.133 404.727 246.4 403.295C245.676 401.864 245.314 400.125 245.314 398.08C245.314 396.068 245.667 394.317 246.375 392.825C247.082 391.325 248.066 390.166 249.328 389.348C250.589 388.521 252.047 388.108 253.7 388.108C254.978 388.108 255.993 388.321 256.743 388.747C257.501 389.165 258.081 389.642 258.481 390.179C258.89 390.707 259.206 391.142 259.427 391.483H259.734V388.364H262.649V408.562C262.649 410.25 262.265 411.622 261.498 412.679C260.74 413.744 259.717 414.524 258.43 415.018C257.152 415.521 255.728 415.773 254.16 415.773ZM254.058 404.983C255.268 404.983 256.291 404.706 257.126 404.152C257.961 403.598 258.596 402.801 259.031 401.761C259.466 400.722 259.683 399.477 259.683 398.028C259.683 396.614 259.47 395.365 259.044 394.283C258.618 393.2 257.987 392.352 257.152 391.739C256.316 391.125 255.285 390.818 254.058 390.818C252.779 390.818 251.714 391.142 250.862 391.79C250.018 392.437 249.383 393.307 248.957 394.398C248.539 395.489 248.331 396.699 248.331 398.028C248.331 399.392 248.544 400.598 248.97 401.646C249.404 402.686 250.044 403.504 250.887 404.101C251.74 404.689 252.797 404.983 254.058 404.983ZM268.172 408V388.364H271.189V408H268.172ZM269.706 385.091C269.118 385.091 268.61 384.891 268.184 384.49C267.767 384.089 267.558 383.608 267.558 383.045C267.558 382.483 267.767 382.001 268.184 381.601C268.61 381.2 269.118 381 269.706 381C270.294 381 270.797 381.2 271.214 381.601C271.64 382.001 271.853 382.483 271.853 383.045C271.853 383.608 271.64 384.089 271.214 384.49C270.797 384.891 270.294 385.091 269.706 385.091ZM279.732 396.188V408H276.714V388.364H279.629V391.432H279.885C280.345 390.435 281.044 389.634 281.982 389.028C282.919 388.415 284.129 388.108 285.612 388.108C286.942 388.108 288.105 388.381 289.102 388.926C290.099 389.463 290.875 390.281 291.429 391.381C291.983 392.472 292.26 393.852 292.26 395.523V408H289.243V395.727C289.243 394.185 288.842 392.983 288.041 392.122C287.24 391.253 286.141 390.818 284.743 390.818C283.78 390.818 282.919 391.027 282.161 391.445C281.411 391.862 280.818 392.472 280.384 393.273C279.949 394.074 279.732 395.045 279.732 396.188ZM306.006 408.409C304.114 408.409 302.482 407.991 301.11 407.156C299.746 406.312 298.694 405.136 297.952 403.628C297.219 402.111 296.853 400.347 296.853 398.335C296.853 396.324 297.219 394.551 297.952 393.017C298.694 391.474 299.725 390.273 301.046 389.412C302.375 388.543 303.926 388.108 305.699 388.108C306.722 388.108 307.732 388.278 308.729 388.619C309.726 388.96 310.634 389.514 311.452 390.281C312.27 391.04 312.922 392.045 313.408 393.298C313.894 394.551 314.137 396.094 314.137 397.926V399.205H299V396.597H311.069C311.069 395.489 310.847 394.5 310.404 393.631C309.969 392.761 309.347 392.075 308.537 391.572C307.736 391.07 306.79 390.818 305.699 390.818C304.498 390.818 303.458 391.116 302.58 391.713C301.711 392.301 301.042 393.068 300.573 394.014C300.104 394.96 299.87 395.974 299.87 397.057V398.795C299.87 400.278 300.125 401.536 300.637 402.567C301.157 403.589 301.877 404.369 302.797 404.906C303.718 405.435 304.787 405.699 306.006 405.699C306.799 405.699 307.515 405.588 308.154 405.366C308.801 405.136 309.36 404.795 309.828 404.344C310.297 403.884 310.659 403.312 310.915 402.631L313.83 403.449C313.523 404.438 313.007 405.307 312.283 406.057C311.559 406.798 310.664 407.378 309.598 407.795C308.533 408.205 307.336 408.409 306.006 408.409ZM326.959 408.409C325.067 408.409 323.435 407.991 322.063 407.156C320.699 406.312 319.647 405.136 318.905 403.628C318.172 402.111 317.806 400.347 317.806 398.335C317.806 396.324 318.172 394.551 318.905 393.017C319.647 391.474 320.678 390.273 321.999 389.412C323.328 388.543 324.88 388.108 326.652 388.108C327.675 388.108 328.685 388.278 329.682 388.619C330.679 388.96 331.587 389.514 332.405 390.281C333.223 391.04 333.875 392.045 334.361 393.298C334.847 394.551 335.09 396.094 335.09 397.926V399.205H319.953V396.597H332.022C332.022 395.489 331.8 394.5 331.357 393.631C330.922 392.761 330.3 392.075 329.49 391.572C328.689 391.07 327.743 390.818 326.652 390.818C325.451 390.818 324.411 391.116 323.533 391.713C322.664 392.301 321.995 393.068 321.526 394.014C321.057 394.96 320.823 395.974 320.823 397.057V398.795C320.823 400.278 321.078 401.536 321.59 402.567C322.11 403.589 322.83 404.369 323.75 404.906C324.671 405.435 325.74 405.699 326.959 405.699C327.752 405.699 328.468 405.588 329.107 405.366C329.755 405.136 330.313 404.795 330.782 404.344C331.25 403.884 331.613 403.312 331.868 402.631L334.783 403.449C334.476 404.438 333.961 405.307 333.236 406.057C332.512 406.798 331.617 407.378 330.551 407.795C329.486 408.205 328.289 408.409 326.959 408.409ZM339.679 408V388.364H342.594V391.33H342.799C343.157 390.358 343.804 389.57 344.742 388.964C345.679 388.359 346.736 388.057 347.912 388.057C348.134 388.057 348.411 388.061 348.743 388.07C349.076 388.078 349.327 388.091 349.498 388.108V391.176C349.395 391.151 349.161 391.112 348.794 391.061C348.436 391.001 348.057 390.972 347.657 390.972C346.702 390.972 345.85 391.172 345.1 391.572C344.358 391.964 343.77 392.51 343.336 393.209C342.909 393.899 342.696 394.687 342.696 395.574V408H339.679Z" fill="#A6ACCD"/>
</svg>
